<svg width="24" height="24" viewBox="0 0 24 24" fill="none" xmlns="http://www.w3.org/2000/svg">
    <path d="M11.4912 7.875C10.6754 7.875 9.87784 8.11693 9.19949 8.57019C8.52113 9.02345 7.99242 9.66769 7.68021 10.4214C7.368 11.1752 7.28631 12.0046 7.44547 12.8047C7.60464 13.6049 7.99751 14.3399 8.5744 14.9168C9.15129 15.4937 9.88629 15.8866 10.6865 16.0457C11.4866 16.2049 12.316 16.1232 13.0698 15.811C13.8235 15.4988 14.4678 14.9701 14.921 14.2917C15.3743 13.6134 15.6162 12.8158 15.6162 12C15.615 10.9064 15.18 9.85787 14.4067 9.08455C13.6333 8.31124 12.5849 7.87624 11.4912 7.875ZM11.4912 14.625C10.972 14.625 10.4645 14.471 10.0328 14.1826C9.60116 13.8942 9.26471 13.4842 9.06603 13.0045C8.86735 12.5249 8.81537 11.9971 8.91665 11.4879C9.01794 10.9787 9.26795 10.511 9.63506 10.1438C10.0022 9.77673 10.4699 9.52672 10.9791 9.42544C11.4883 9.32415 12.0161 9.37614 12.4958 9.57482C12.9754 9.7735 13.3854 10.1099 13.6738 10.5416C13.9623 10.9733 14.1162 11.4808 14.1162 12C14.1154 12.696 13.8386 13.3632 13.3465 13.8553C12.8544 14.3474 12.1872 14.6242 11.4912 14.625Z" fill="#3A3F63"/>
    <path d="M21.7832 15.1087L20.294 13.8828C20.558 12.6415 20.558 11.3585 20.294 10.1172L21.7832 8.8913C21.955 8.75057 22.071 8.5533 22.1106 8.3348C22.1502 8.11631 22.1106 7.89086 21.9991 7.69885L20.4704 5.05121C20.3599 4.85856 20.1844 4.71157 19.9754 4.63659C19.7663 4.5616 19.5374 4.56351 19.3296 4.64199L17.5221 5.31919C16.5805 4.46845 15.4696 3.8264 14.2624 3.43519L13.9453 1.53343C13.9094 1.31425 13.7966 1.11503 13.6271 0.971473C13.4576 0.827913 13.2426 0.749399 13.0205 0.750003H9.96323C9.74114 0.749407 9.52611 0.827918 9.35665 0.971467C9.1872 1.11502 9.0744 1.31422 9.03848 1.53338L8.72151 3.43519C7.51429 3.82639 6.40343 4.46844 5.46182 5.31919L3.65409 4.64189C3.44633 4.56347 3.21745 4.56159 3.00843 4.63658C2.79942 4.71158 2.62394 4.85855 2.51343 5.05116L0.98479 7.69899C0.873303 7.89102 0.833822 8.11647 0.873417 8.33496C0.913013 8.55344 1.0291 8.7507 1.20088 8.89139L2.68996 10.1172C2.42596 11.3585 2.42596 12.6415 2.68996 13.8828L1.20074 15.1087C1.02899 15.2494 0.912931 15.4467 0.873362 15.6652C0.833793 15.8837 0.873294 16.1091 0.98479 16.3012L2.51348 18.9488C2.62399 19.1414 2.7995 19.2884 3.00855 19.3634C3.21759 19.4384 3.44651 19.4365 3.65427 19.358L5.46187 18.6808C6.40348 19.5316 7.51434 20.1736 8.72156 20.5648L9.03852 22.4666C9.07444 22.6857 9.18722 22.8849 9.35667 23.0285C9.52611 23.1721 9.74115 23.2506 9.96323 23.25H13.0205C13.2426 23.2506 13.4576 23.1721 13.6271 23.0286C13.7966 22.885 13.9093 22.6858 13.9453 22.4666L14.2623 20.5648C15.4695 20.1736 16.5803 19.5316 17.522 18.6808L19.3296 19.3581C19.5374 19.4365 19.7663 19.4384 19.9753 19.3634C20.1843 19.2884 20.3598 19.1415 20.4703 18.9488L21.9989 16.301C22.1104 16.1091 22.1499 15.8837 22.1104 15.6652C22.0709 15.4467 21.9549 15.2495 21.7832 15.1087V15.1087ZM19.4097 17.7862L17.1546 16.9413L16.8131 17.2851C15.8735 18.2321 14.6984 18.9113 13.4088 19.2526L12.94 19.3762L12.5442 21.75H10.4399L10.0442 19.3762L9.57548 19.2526C8.28589 18.9113 7.11072 18.2321 6.17118 17.2851L5.8297 16.9413L3.57421 17.7862L2.52229 15.9638L4.3799 14.4346L4.25334 13.9671C3.90528 12.6788 3.90528 11.3212 4.25334 10.0329L4.3799 9.56546L2.52229 8.03621L3.57445 6.2138L5.82956 7.05868L6.17104 6.71489C7.11058 5.76791 8.28575 5.08872 9.57534 4.74741L10.0441 4.62385L10.4398 2.25H12.5442L12.9399 4.62385L13.4086 4.74741C14.6982 5.08872 15.8734 5.76791 16.8129 6.71489L17.1544 7.05868L19.4095 6.2138L20.4617 8.03616L18.6041 9.56546L18.7307 10.0329C19.0787 11.3212 19.0787 12.6788 18.7307 13.9671L18.6041 14.4346L20.4617 15.9638L19.4097 17.7862Z" fill="#3A3F63"/>
</svg>
