<svg width="18" height="22" viewBox="0 0 18 22" fill="none" xmlns="http://www.w3.org/2000/svg">
<path d="M11.7001 14.5889L11.335 14.9441C14.035 15.2457 15.9197 16.1388 15.9197 17.2817C15.9195 18.7694 12.895 20.1197 8.76557 20.1197C8.76365 20.1197 8.76173 20.1197 8.76005 20.1197C8.75837 20.1197 8.75621 20.1197 8.75453 20.1197C4.62509 20.1197 1.60061 18.7694 1.60061 17.2819C1.60061 16.1388 3.48533 15.246 6.18533 14.9443L5.82029 14.5891C2.18525 14.9491 0.0595703 16.1105 0.0595703 17.9052C0.0595703 20.3263 3.95381 21.9993 8.76029 21.9993C13.5668 21.9993 17.461 20.3263 17.461 17.9052C17.4608 16.1102 15.3351 14.9489 11.7001 14.5889Z" fill="white"/>
<path d="M8.75971 18.2844C8.76091 18.2863 8.76523 18.293 8.76523 18.293C8.76523 18.293 14.579 9.37198 14.579 6.4387C14.579 2.12302 11.6325 0.245258 8.75971 0.239258C5.88691 0.245258 2.94043 2.12302 2.94043 6.4387C2.94043 9.37174 8.75419 18.293 8.75419 18.293C8.75419 18.293 8.75851 18.2861 8.75971 18.2844ZM6.74419 6.19534C6.74419 5.08222 7.64659 4.17982 8.75971 4.17982C9.87307 4.17982 10.7752 5.08222 10.7752 6.19534C10.7752 7.30846 9.87283 8.21086 8.75971 8.21086C7.64659 8.2111 6.74419 7.3087 6.74419 6.19534Z" fill="white"/>
</svg>
