<svg width="24" height="24" viewBox="0 0 24 24" fill="none" xmlns="http://www.w3.org/2000/svg">
<path d="M2.625 9.50625C2.82391 9.50625 3.01468 9.42723 3.15533 9.28658C3.29598 9.14593 3.375 8.95516 3.375 8.75625V3.375H8.75625C8.95516 3.375 9.14593 3.29598 9.28658 3.15533C9.42723 3.01468 9.50625 2.82391 9.50625 2.625C9.50625 2.42609 9.42723 2.23532 9.28658 2.09467C9.14593 1.95402 8.95516 1.875 8.75625 1.875H2.625C2.42609 1.875 2.23532 1.95402 2.09467 2.09467C1.95402 2.23532 1.875 2.42609 1.875 2.625V8.75625C1.875 8.95516 1.95402 9.14593 2.09467 9.28658C2.23532 9.42723 2.42609 9.50625 2.625 9.50625Z" fill="white"/>
<path d="M8.75625 20.6254H3.375V15.2441C3.375 15.0452 3.29598 14.8545 3.15533 14.7138C3.01468 14.5732 2.82391 14.4941 2.625 14.4941C2.42609 14.4941 2.23532 14.5732 2.09467 14.7138C1.95402 14.8545 1.875 15.0452 1.875 15.2441V21.3754C1.875 21.5743 1.95402 21.7651 2.09467 21.9057C2.23532 22.0464 2.42609 22.1254 2.625 22.1254H8.75625C8.95516 22.1254 9.14593 22.0464 9.28658 21.9057C9.42723 21.7651 9.50625 21.5743 9.50625 21.3754C9.50625 21.1765 9.42723 20.9857 9.28658 20.8451C9.14593 20.7044 8.95516 20.6254 8.75625 20.6254Z" fill="white"/>
<path d="M15.2441 3.375H20.6254V8.75625C20.6254 8.95516 20.7044 9.14593 20.8451 9.28658C20.9857 9.42723 21.1765 9.50625 21.3754 9.50625C21.5743 9.50625 21.7651 9.42723 21.9057 9.28658C22.0464 9.14593 22.1254 8.95516 22.1254 8.75625V2.625C22.1254 2.42609 22.0464 2.23532 21.9057 2.09467C21.7651 1.95402 21.5743 1.875 21.3754 1.875H15.2441C15.0452 1.875 14.8545 1.95402 14.7138 2.09467C14.5732 2.23532 14.4941 2.42609 14.4941 2.625C14.4941 2.82391 14.5732 3.01468 14.7138 3.15533C14.8545 3.29598 15.0452 3.375 15.2441 3.375Z" fill="white"/>
<path d="M20.6254 15.2441V20.6254H15.2441C15.0452 20.6254 14.8545 20.7044 14.7138 20.8451C14.5732 20.9857 14.4941 21.1765 14.4941 21.3754C14.4941 21.5743 14.5732 21.7651 14.7138 21.9057C14.8545 22.0464 15.0452 22.1254 15.2441 22.1254H21.3754C21.5743 22.1254 21.7651 22.0464 21.9057 21.9057C22.0464 21.7651 22.1254 21.5743 22.1254 21.3754V15.2441C22.1254 15.0452 22.0464 14.8545 21.9057 14.7138C21.7651 14.5732 21.5743 14.4941 21.3754 14.4941C21.1765 14.4941 20.9857 14.5732 20.8451 14.7138C20.7044 14.8545 20.6254 15.0452 20.6254 15.2441Z" fill="white"/>
<path d="M22.5 11.25H1.5C1.30109 11.25 1.11032 11.329 0.96967 11.4697C0.829018 11.6103 0.75 11.8011 0.75 12C0.75 12.1989 0.829018 12.3897 0.96967 12.5303C1.11032 12.671 1.30109 12.75 1.5 12.75H22.5C22.6989 12.75 22.8897 12.671 23.0303 12.5303C23.171 12.3897 23.25 12.1989 23.25 12C23.25 11.8011 23.171 11.6103 23.0303 11.4697C22.8897 11.329 22.6989 11.25 22.5 11.25Z" fill="white"/>
</svg>
