<svg width="24" height="24" viewBox="0 0 24 24" fill="none" xmlns="http://www.w3.org/2000/svg">
<path d="M-11 0H35.352V24H-11V0Z" fill="#3A3F63"/>
<path d="M-11 0V2.68125L30.1691 24H35.352V21.3187L-5.81708 0H-11ZM35.352 0V2.68125L-5.81708 24H-11V21.3187L30.1691 0H35.352Z" fill="white"/>
<path d="M8.31485 0V24H16.0372V0H8.31485ZM-11 8.00156V15.9984H35.352V8.00156H-11Z" fill="white"/>
<path d="M-11 9.6V14.4H35.352V9.6H-11ZM9.85841 0V24H14.4936V0H9.85841ZM-11 24L4.44916 15.9984H7.90746L-7.54623 24H-11ZM-11 0L4.44916 8.00156H0.995394L-11 1.79063V0ZM16.4491 8.00156L31.8982 0H35.352L19.9029 8.00156H16.4491ZM35.352 24L19.9029 15.9984H23.3566L35.352 22.2094V24Z" fill="#C8102E"/>
</svg>
