<svg width="22" height="24" viewBox="0 0 22 24" fill="none" xmlns="http://www.w3.org/2000/svg">
<path d="M16.4955 2.15099L13.5371 5.10938L13.9591 5.53135L16.9175 2.57296L16.4955 2.15099Z" fill="white"/>
<path d="M5.50881 2.15413L5.08691 2.57617L8.04581 5.53404L8.46771 5.11199L5.50881 2.15413Z" fill="white"/>
<path d="M11.3009 0H10.7041V4.18378H11.3009V0Z" fill="white"/>
<path d="M7.11738 7.76758H2.93359V8.36758H7.11738V7.76758Z" fill="white"/>
<path d="M19.0715 7.76758H14.8877V8.36758H19.0715V7.76758Z" fill="white"/>
<path d="M20.4048 22.7707H20.2718L19.2534 19.7124H15.3745V19.4853H18.4361C18.6587 19.4718 18.8678 19.3738 19.0206 19.2113C19.1734 19.0489 19.2585 18.8343 19.2585 18.6113C19.2585 18.3883 19.1734 18.1736 19.0206 18.0112C18.8678 17.8488 18.6587 17.7508 18.4361 17.7372V15.3307C18.4344 13.8819 17.8581 12.4929 16.8336 11.4684C15.8091 10.4439 14.4201 9.86759 12.9713 9.86587H11.6967V8.06263H12.0437C12.3198 8.06263 12.5846 7.95295 12.7798 7.75771C12.9751 7.56246 13.0848 7.29766 13.0848 7.02155C13.0848 6.74544 12.9751 6.48063 12.7798 6.28539C12.5846 6.09015 12.3198 5.98047 12.0437 5.98047H9.96153C9.68542 5.98047 9.42061 6.09015 9.22537 6.28539C9.03013 6.48063 8.92045 6.74544 8.92045 7.02155C8.92045 7.29766 9.03013 7.56246 9.22537 7.75771C9.42061 7.95295 9.68542 8.06263 9.96153 8.06263H10.3086V9.86587H9.03396C7.58512 9.86759 6.1961 10.4439 5.17161 11.4684C4.14713 12.4929 3.57081 13.8819 3.5691 15.3307V17.7372C3.34649 17.7508 3.13744 17.8488 2.98461 18.0112C2.83178 18.1736 2.74669 18.3883 2.74669 18.6113C2.74669 18.8343 2.83178 19.0489 2.98461 19.2113C3.13744 19.3738 3.34649 19.4718 3.5691 19.4853H6.63072V19.7124H2.73883L1.73666 22.7707H1.59396C1.42193 22.7707 1.25694 22.8391 1.1353 22.9607C1.01365 23.0824 0.945313 23.2474 0.945312 23.4194C0.945313 23.5914 1.01365 23.7564 1.1353 23.878C1.25694 23.9997 1.42193 24.068 1.59396 24.068H20.4048C20.5768 24.068 20.7418 23.9997 20.8634 23.878C20.9851 23.7564 21.0534 23.5914 21.0534 23.4194C21.0534 23.2474 20.9851 23.0824 20.8634 22.9607C20.7418 22.8391 20.5768 22.7707 20.4048 22.7707ZM3.5691 19.0475C3.50865 19.0527 3.44778 19.0453 3.39035 19.0258C3.33291 19.0062 3.28017 18.9749 3.23546 18.9339C3.19075 18.8929 3.15506 18.843 3.13064 18.7875C3.10622 18.732 3.09361 18.672 3.09361 18.6113C3.09361 18.5506 3.10622 18.4906 3.13064 18.4351C3.15506 18.3795 3.19075 18.3297 3.23546 18.2886C3.28017 18.2476 3.33291 18.2164 3.39035 18.1968C3.44778 18.1772 3.50865 18.1698 3.5691 18.1751H18.4361C18.4966 18.1698 18.5574 18.1772 18.6149 18.1968C18.6723 18.2164 18.7251 18.2476 18.7698 18.2886C18.8145 18.3297 18.8502 18.3795 18.8746 18.4351C18.899 18.4906 18.9116 18.5506 18.9116 18.6113C18.9116 18.672 18.899 18.732 18.8746 18.7875C18.8502 18.843 18.8145 18.8929 18.7698 18.9339C18.7251 18.9749 18.6723 19.0062 18.6149 19.0258C18.5574 19.0453 18.4966 19.0527 18.4361 19.0475H3.5691ZM3.07288 20.1502H18.9323L19.808 22.7707H2.1972L3.07288 20.1502Z" fill="white"/>
</svg>
