<svg width="18" height="18" viewBox="0 0 18 18" fill="none" xmlns="http://www.w3.org/2000/svg">
<path fill-rule="evenodd" clip-rule="evenodd" d="M3 0.5C3 0.367392 3.05268 0.240215 3.14645 0.146447C3.24021 0.0526785 3.36739 0 3.5 0H14.5C14.6326 0 14.7598 0.0526785 14.8536 0.146447C14.9473 0.240215 15 0.367392 15 0.5V1H17.5C17.6326 1 17.7598 1.05268 17.8536 1.14645C17.9473 1.24021 18 1.36739 18 1.5V4.5C18 5.16304 17.7366 5.79893 17.2678 6.26777C16.7989 6.73661 16.163 7 15.5 7H14.6585C14.3011 8.00856 13.6809 8.90338 12.8619 9.592C12.0429 10.2806 11.0549 10.738 10 10.917V14H13C13.1326 14 13.2598 14.0527 13.3536 14.1464C13.4473 14.2402 13.5 14.3674 13.5 14.5V17.5C13.5 17.6326 13.4473 17.7598 13.3536 17.8536C13.2598 17.9473 13.1326 18 13 18H5C4.86739 18 4.74021 17.9473 4.64645 17.8536C4.55268 17.7598 4.5 17.6326 4.5 17.5V14.5C4.5 14.3674 4.55268 14.2402 4.64645 14.1464C4.74021 14.0527 4.86739 14 5 14H8V10.917C6.94507 10.738 5.95706 10.2806 5.13809 9.592C4.31911 8.90338 3.69889 8.00856 3.3415 7H2.5C1.83696 7 1.20107 6.73661 0.732233 6.26777C0.263392 5.79893 0 5.16304 0 4.5V1.5C0 1.36739 0.0526785 1.24021 0.146447 1.14645C0.240215 1.05268 0.367392 1 0.5 1H3V0.5ZM15 5V2H17V4.5C17 4.89782 16.842 5.27936 16.5607 5.56066C16.2794 5.84196 15.8978 6 15.5 6H15V5ZM3 2H1V4.5C1 4.89782 1.15804 5.27936 1.43934 5.56066C1.72064 5.84196 2.10218 6 2.5 6H3V2Z" fill="white"/>
</svg>
